<?xml-stylesheet href="rounding.css" type="text/css"?><svg xmlns="http://www.w3.org/2000/svg" width="474.2" height="227.6" viewBox="-42.7 -156.5 355.7 170.7"><g stroke="#000" stroke-width="1.1"><path fill="none" d="M-28.5-142.3h340.8"/><path fill="none" stroke-width=".9" d="M310.7-144.3c0 .7 1.6 2 2 2-.4.2-2 1.3-2 2" stroke-linejoin="round" stroke-linecap="round"/><path fill="none" d="M0-142.3v3"/><text stroke="none" transform="translate(0 -129.24)" text-anchor="middle" font-size="10">0.0</text><path fill="none" d="M28.5-142.3v3"/><text stroke="none" transform="translate(28.452 -129.24)" text-anchor="middle" font-size="10">0.2</text><path fill="none" d="M57-142.3v3"/><text stroke="none" transform="translate(56.905 -129.24)" text-anchor="middle" font-size="10">0.4</text><path fill="none" d="M85.4-142.3v3"/><text stroke="none" transform="translate(85.36 -129.24)" text-anchor="middle" font-size="10">0.6</text><path fill="none" d="M-19.7-118c0-5-4-8.8-8.8-8.8-4.8 0-8.7 4-8.7 8.7 0 4.5 4 8.5 8.7 8.5 5 0 8.8-4 8.8-8.8zm-8.8 0"/><text stroke="none" transform="translate(-28.452 -114.857)" text-anchor="middle" font-size="10">1</text><path fill="none" d="M-28.5-95.3h340.8"/><path fill="none" stroke-width=".9" d="M310.7-97.4c0 .8 1.6 2 2 2-.4.2-2 1.4-2 2.2" stroke-linejoin="round" stroke-linecap="round"/><path fill="none" d="M0-95.3v2.8"/><text stroke="none" transform="translate(0 -82.293)" text-anchor="middle" font-size="10">0.0</text><path fill="none" d="M142.3-95.3v2.8"/><text stroke="none" transform="translate(142.264 -82.293)" text-anchor="middle" font-size="10">1.0</text><path fill="none" d="M284.5-95.3v2.8"/><text stroke="none" transform="translate(284.527 -82.293)" text-anchor="middle" font-size="10">2.0</text><path fill="none" d="M-19.7-71c0-5-4-9-8.8-9-4.8 0-8.7 4-8.7 9 0 4.7 4 8.6 8.7 8.6 5 0 8.8-4 8.8-8.7zm-8.8 0"/><text stroke="none" transform="translate(-28.452 -67.91)" text-anchor="middle" font-size="10">2</text><path fill="none" d="M-28.5-48.4h340.8"/><path fill="none" stroke-width=".9" d="M310.7-50.4c0 .7 1.6 2 2 2-.4.2-2 1.3-2 2" stroke-linejoin="round" stroke-linecap="round"/><path fill="none" d="M0-48.4v3"/><text stroke="none" transform="translate(0 -35.346)" text-anchor="middle" font-size="10">0.0</text><path fill="none" d="M142.3-48.4v3"/><text stroke="none" transform="translate(142.264 -35.346)" text-anchor="middle" font-size="10">1.0</text><path fill="none" d="M284.5-48.4v3"/><text stroke="none" transform="translate(284.527 -35.346)" text-anchor="middle" font-size="10">2.0</text><path fill="none" d="M-19.7-24.2c0-4.8-4-8.7-8.8-8.7-4.8 0-8.7 4-8.7 9 0 4.8 4 8.8 8.7 8.8 5 0 8.8-4 8.8-8.8zm-8.8 0"/><text stroke="none" transform="translate(-28.452 -20.962)" text-anchor="middle" font-size="10">3</text><path fill="none" d="M-28.5 0h340.8"/><path fill="none" stroke-width=".9" d="M310.7-2c0 .7 1.6 2 2 2-.4 0-2 1.3-2 2" stroke-linejoin="round" stroke-linecap="round"/><path fill="none" d="M0 0v2.8"/><text stroke="none" transform="translate(0 13.023)" text-anchor="middle" font-size="10">0.0</text><path fill="none" d="M28.5 0v2.8"/><text stroke="none" transform="translate(28.452 13.023)" text-anchor="middle" font-size="10">0.2</text><path fill="none" d="M57 0v2.8"/><text stroke="none" transform="translate(56.905 13.023)" text-anchor="middle" font-size="10">0.4</text><path fill="none" d="M85.4 0v2.8"/><text stroke="none" transform="translate(85.36 13.023)" text-anchor="middle" font-size="10">0.6</text><g fill-opacity=".3" transform="matrix(1 0 0 -1 0 -142.264)"><clipPath id="a"><path d="M-28.5 0v-142.3H313V0zM313-142.3"/></clipPath><g clip-path="url(#a)"><path fill="#00F" stroke="none" d="M0 0v-49.8l142.3-44v47L28.5-3v3z"/><path fill="#0F0" stroke="none" d="M28.5 0v-2.8l113.8-44v-3l142.2-44v47L57-3v3z"/><path fill="#FF7F00" stroke="none" d="M57 0v-2.8l227.5-44v-3l142.3-44v47L85.4-3v3z"/><path fill="none" stroke="#00F" d="M142.3-96.7L28.5-142.3"/><path fill="none" stroke="#0F0" d="M284.5-96.7L57-142.3"/><path fill="none" stroke="#FF7F00" d="M426.8-96.7L85.4-142.3"/></g></g></g></svg>