<?xml version="1.0" encoding="UTF-8" standalone="no"?>
<!DOCTYPE svg PUBLIC "-//W3C//DTD SVG 20010904//EN" "http://www.w3.org/TR/2001/REC-SVG-20010904/DTD/svg10.dtd">
<svg xmlns="http://www.w3.org/2000/svg" width="0.853333in" height="0.853333in" viewBox="0 0 256 256">
    <circle cx="128" cy="128" r="114" fill="gray" stroke="#76d6ff" stroke-width="20" />
    <path id="font" fill="white" stroke="none"
        d="M 128.67,103.00
           C 128.67,103.00 135.42,83.00 135.42,83.00
             135.42,83.00 139.51,75.02 139.51,75.02
             139.51,75.02 151.00,74.00 151.00,74.00
             151.00,74.00 141.33,104.00 141.33,104.00
             141.33,104.00 120.67,165.00 120.67,165.00
             120.67,165.00 114.00,184.00 114.00,184.00
             114.00,184.00 110.30,192.01 110.30,192.01
             110.30,192.01 98.00,193.00 98.00,193.00
             98.00,193.00 128.67,103.00 128.67,103.00 Z
           M 108.00,88.00
           C 108.00,88.00 108.00,102.00 108.00,102.00
             108.00,102.00 80.00,102.00 80.00,102.00
             80.00,102.00 80.00,178.00 80.00,178.00
             80.00,178.00 64.00,178.00 64.00,178.00
             64.00,178.00 64.00,102.00 64.00,102.00
             64.00,102.00 36.00,102.00 36.00,102.00
             36.00,102.00 36.00,88.00 36.00,88.00
             36.00,88.00 108.00,88.00 108.00,88.00 Z
           M 221.00,88.00
           C 221.00,88.00 221.00,102.00 221.00,102.00
             221.00,102.00 176.00,102.00 176.00,102.00
             176.00,102.00 176.00,128.00 176.00,128.00
             176.00,128.00 217.00,128.00 217.00,128.00
             217.00,128.00 217.00,141.00 217.00,141.00
             217.00,141.00 176.00,141.00 176.00,141.00
             176.00,141.00 176.00,178.00 176.00,178.00
             176.00,178.00 161.00,178.00 161.00,178.00
             161.00,178.00 161.00,88.00 161.00,88.00
             161.00,88.00 221.00,88.00 221.00,88.00 Z" />
</svg>
