<svg xmlns:xlink="http://www.w3.org/1999/xlink" xmlns="http://www.w3.org/2000/svg"><symbol viewBox="0 0 448 512" id="calendar-alt-solid"><path d="M400 64h-48V16c0-8.8-7.2-16-16-16h-32c-8.8 0-16 7.2-16 16v48H160V16c0-8.8-7.2-16-16-16h-32c-8.8 0-16 7.2-16 16v48H48C21.5 64 0 85.5 0 112v352c0 26.5 21.5 48 48 48h352c26.5 0 48-21.5 48-48V112c0-26.5-21.5-48-48-48zm0 96v80h-96v-80h96zM176 352v-80h96v80h-96zm96 32v80h-96v-80h96zm-128-32H48v-80h96v80zm32-112v-80h96v80h-96zm128 32h96v80h-96v-80zM144 160v80H48v-80h96zM48 458v-74h96v80H54c-3.3 0-6-2.7-6-6zm346 6h-90v-80h96v74c0 3.3-2.7 6-6 6z"/></symbol><symbol viewBox="0 0 512 512" id="chevron-circle-left-solid"><path d="M256 504C119 504 8 393 8 256S119 8 256 8s248 111 248 248-111 248-248 248zM142.1 273l135.5 135.5c9.4 9.4 24.6 9.4 33.9 0l17-17c9.4-9.4 9.4-24.6 0-33.9L226.9 256l101.6-101.6c9.4-9.4 9.4-24.6 0-33.9l-17-17c-9.4-9.4-24.6-9.4-33.9 0L142.1 239c-9.4 9.4-9.4 24.6 0 34z"/></symbol><symbol viewBox="0 0 512 512" id="chevron-circle-right-solid"><path d="M256 8c137 0 248 111 248 248S393 504 256 504 8 393 8 256 119 8 256 8zm113.9 231L234.4 103.5c-9.4-9.4-24.6-9.4-33.9 0l-17 17c-9.4 9.4-9.4 24.6 0 33.9L285.1 256 183.5 357.6c-9.4 9.4-9.4 24.6 0 33.9l17 17c9.4 9.4 24.6 9.4 33.9 0L369.9 273c9.4-9.4 9.4-24.6 0-34z"/></symbol><symbol viewBox="0 0 320 512" id="chevron-right-solid"><path d="M285.476 272.971L91.132 467.314c-9.373 9.373-24.569 9.373-33.941 0l-22.667-22.667c-9.357-9.357-9.375-24.522-.04-33.901L188.505 256 34.484 101.255c-9.335-9.379-9.317-24.544.04-33.901l22.667-22.667c9.373-9.373 24.569-9.373 33.941 0L285.475 239.03c9.373 9.372 9.373 24.568.001 33.941z"/></symbol><symbol viewBox="0 0 384 512" id="child-solid"><path d="M120 72c0-39.765 32.235-72 72-72s72 32.235 72 72c0 39.764-32.235 72-72 72s-72-32.236-72-72zm254.627 1.373c-12.496-12.497-32.758-12.497-45.254 0L242.745 160H141.254L54.627 73.373c-12.496-12.497-32.758-12.497-45.254 0-12.497 12.497-12.497 32.758 0 45.255L104 213.254V480c0 17.673 14.327 32 32 32h16c17.673 0 32-14.327 32-32V368h16v112c0 17.673 14.327 32 32 32h16c17.673 0 32-14.327 32-32V213.254l94.627-94.627c12.497-12.497 12.497-32.757 0-45.254z"/></symbol><symbol viewBox="0 0 512 512" id="copyright"><path d="M256 8C119.033 8 8 119.033 8 256s111.033 248 248 248 248-111.033 248-248S392.967 8 256 8zm0 448c-110.532 0-200-89.451-200-200 0-110.531 89.451-200 200-200 110.532 0 200 89.451 200 200 0 110.532-89.451 200-200 200zm107.351-101.064c-9.614 9.712-45.53 41.396-104.065 41.396-82.43 0-140.484-61.425-140.484-141.567 0-79.152 60.275-139.401 139.762-139.401 55.531 0 88.738 26.62 97.593 34.779a11.965 11.965 0 0 1 1.936 15.322l-18.155 28.113c-3.841 5.95-11.966 7.282-17.499 2.921-8.595-6.776-31.814-22.538-61.708-22.538-48.303 0-77.916 35.33-77.916 80.082 0 41.589 26.888 83.692 78.277 83.692 32.657 0 56.843-19.039 65.726-27.225 5.27-4.857 13.596-4.039 17.82 1.738l19.865 27.17a11.947 11.947 0 0 1-1.152 15.518z"/></symbol><symbol viewBox="0 0 496 512" id="creative-commons-by"><path d="M314.9 194.4v101.4h-28.3v120.5h-77.1V295.9h-28.3V194.4c0-4.4 1.6-8.2 4.6-11.3 3.1-3.1 6.9-4.7 11.3-4.7H299c4.1 0 7.8 1.6 11.1 4.7 3.1 3.2 4.8 6.9 4.8 11.3zm-101.5-63.7c0-23.3 11.5-35 34.5-35s34.5 11.7 34.5 35c0 23-11.5 34.5-34.5 34.5s-34.5-11.5-34.5-34.5zM247.6 8C389.4 8 496 118.1 496 256c0 147.1-118.5 248-248.4 248C113.6 504 0 394.5 0 256 0 123.1 104.7 8 247.6 8zm.8 44.7C130.2 52.7 44.7 150.6 44.7 256c0 109.8 91.2 202.8 203.7 202.8 103.2 0 202.8-81.1 202.8-202.8.1-113.8-90.2-203.3-202.8-203.3z"/></symbol><symbol viewBox="0 0 496 512" id="creative-commons-nc-eu"><path d="M247.7 8C103.6 8 0 124.8 0 256c0 136.3 111.7 248 247.7 248C377.9 504 496 403.1 496 256 496 117 388.4 8 247.7 8zm.6 450.7c-112 0-203.6-92.5-203.6-202.7 0-23.2 3.7-45.2 10.9-66l65.7 29.1h-4.7v29.5h23.3c0 6.2-.4 3.2-.4 19.5h-22.8v29.5h27c11.4 67 67.2 101.3 124.6 101.3 26.6 0 50.6-7.9 64.8-15.8l-10-46.1c-8.7 4.6-28.2 10.8-47.3 10.8-28.2 0-58.1-10.9-67.3-50.2h90.3l128.3 56.8c-1.5 2.1-56.2 104.3-178.8 104.3zm-16.7-190.6l-.5-.4.9.4h-.4zm77.2-19.5h3.7v-29.5h-70.3l-28.6-12.6c2.5-5.5 5.4-10.5 8.8-14.3 12.9-15.8 31.1-22.4 51.1-22.4 18.3 0 35.3 5.4 46.1 10l11.6-47.3c-15-6.6-37-12.4-62.3-12.4-39 0-72.2 15.8-95.9 42.3-5.3 6.1-9.8 12.9-13.9 20.1l-81.6-36.1c64.6-96.8 157.7-93.6 170.7-93.6 113 0 203 90.2 203 203.4 0 18.7-2.1 36.3-6.3 52.9l-136.1-60.5z"/></symbol><symbol viewBox="0 0 496 512" id="creative-commons-nc-jp"><path d="M247.7 8C103.6 8 0 124.8 0 256c0 136.4 111.8 248 247.7 248C377.9 504 496 403.2 496 256 496 117.2 388.5 8 247.7 8zm.6 450.7c-112 0-203.6-92.5-203.6-202.7 0-21.1 3-41.2 9-60.3l127 56.5h-27.9v38.6h58.1l5.7 11.8v18.7h-63.8V360h63.8v56h61.7v-56h64.2v-35.7l81 36.1c-1.5 2.2-57.1 98.3-175.2 98.3zm87.6-137.3h-57.6v-18.7l2.9-5.6 54.7 24.3zm6.5-51.4v-17.8h-38.6l63-116H301l-43.4 96-23-10.2-39.6-85.7h-65.8l27.3 51-81.9-36.5c27.8-44.1 82.6-98.1 173.7-98.1 112.8 0 203 90 203 203.4 0 21-2.7 40.6-7.9 59l-101-45.1z"/></symbol><symbol viewBox="0 0 496 512" id="creative-commons-nc-us"><path d="M247.6 8C387.4 8 496 115.9 496 256c0 147.2-118.5 248-248.4 248C113.1 504 0 393.2 0 256 0 123.1 104.7 8 247.6 8zM55.8 189.1c-7.4 20.4-11.1 42.7-11.1 66.9 0 110.9 92.1 202.4 203.7 202.4 122.4 0 177.2-101.8 178.5-104.1l-93.4-41.6c-7.7 37.1-41.2 53-68.2 55.4v38.1h-28.8V368c-27.5-.3-52.6-10.2-75.3-29.7l34.1-34.5c31.7 29.4 86.4 31.8 86.4-2.2 0-6.2-2.2-11.2-6.6-15.1-14.2-6-1.8-.1-219.3-97.4zM248.4 52.3c-38.4 0-112.4 8.7-170.5 93l94.8 42.5c10-31.3 40.4-42.9 63.8-44.3v-38.1h28.8v38.1c22.7 1.2 43.4 8.9 62 23L295 199.7c-42.7-29.9-83.5-8-70 11.1 53.4 24.1 43.8 19.8 93 41.6l127.1 56.7c4.1-17.4 6.2-35.1 6.2-53.1 0-57-19.8-105-59.3-143.9-39.3-39.9-87.2-59.8-143.6-59.8z"/></symbol><symbol viewBox="0 0 496 512" id="creative-commons-nd"><path d="M247.6 8C389.4 8 496 118.1 496 256c0 147.1-118.5 248-248.4 248C113.6 504 0 394.5 0 256 0 123.1 104.7 8 247.6 8zm.8 44.7C130.2 52.7 44.7 150.6 44.7 256c0 109.8 91.2 202.8 203.7 202.8 103.2 0 202.8-81.1 202.8-202.8.1-113.8-90.2-203.3-202.8-203.3zm94 144.3v42.5H162.1V197h180.3zm0 79.8v42.5H162.1v-42.5h180.3z"/></symbol><symbol viewBox="0 0 496 512" id="creative-commons"><path d="M245.83 214.87l-33.22 17.28c-9.43-19.58-25.24-19.93-27.46-19.93-22.13 0-33.22 14.61-33.22 43.84 0 23.57 9.21 43.84 33.22 43.84 14.47 0 24.65-7.09 30.57-21.26l30.55 15.5c-6.17 11.51-25.69 38.98-65.1 38.98-22.6 0-73.96-10.32-73.96-77.05 0-58.69 43-77.06 72.63-77.06 30.72-.01 52.7 11.95 65.99 35.86zm143.05 0l-32.78 17.28c-9.5-19.77-25.72-19.93-27.9-19.93-22.14 0-33.22 14.61-33.22 43.84 0 23.55 9.23 43.84 33.22 43.84 14.45 0 24.65-7.09 30.54-21.26l31 15.5c-2.1 3.75-21.39 38.98-65.09 38.98-22.69 0-73.96-9.87-73.96-77.05 0-58.67 42.97-77.06 72.63-77.06 30.71-.01 52.58 11.95 65.56 35.86zM247.56 8.05C104.74 8.05 0 123.11 0 256.05c0 138.49 113.6 248 247.56 248 129.93 0 248.44-100.87 248.44-248 0-137.87-106.62-248-248.44-248zm.87 450.81c-112.54 0-203.7-93.04-203.7-202.81 0-105.42 85.43-203.27 203.72-203.27 112.53 0 202.82 89.46 202.82 203.26-.01 121.69-99.68 202.82-202.84 202.82z"/></symbol><symbol viewBox="0 0 448 512" id="hand-peace"><path fill="#34495E" d="M362.146 191.976c-13.71-21.649-38.761-34.016-65.006-30.341V74c0-40.804-32.811-74-73.141-74-40.33 0-73.14 33.196-73.14 74L160 168l-18.679-78.85C126.578 50.843 83.85 32.11 46.209 47.208 8.735 62.238-9.571 104.963 5.008 142.85l55.757 144.927c-30.557 24.956-43.994 57.809-24.733 92.218l54.853 97.999C102.625 498.97 124.73 512 148.575 512h205.702c30.744 0 57.558-21.44 64.555-51.797l27.427-118.999a67.801 67.801 0 0 0 1.729-15.203L448 256c0-44.956-43.263-77.343-85.854-64.024zM399.987 326c0 1.488-.169 2.977-.502 4.423l-27.427 119.001c-1.978 8.582-9.29 14.576-17.782 14.576H148.575c-6.486 0-12.542-3.621-15.805-9.449l-54.854-98c-4.557-8.141-2.619-18.668 4.508-24.488l26.647-21.764a16 16 0 0 0 4.812-18.139l-64.09-166.549C37.226 92.956 84.37 74.837 96.51 106.389l59.784 155.357A16 16 0 0 0 171.227 272h11.632c8.837 0 16-7.163 16-16V74c0-34.375 50.281-34.43 50.281 0v182c0 8.837 7.163 16 16 16h6.856c8.837 0 16-7.163 16-16v-28c0-25.122 36.567-25.159 36.567 0v28c0 8.837 7.163 16 16 16h6.856c8.837 0 16-7.163 16-16 0-25.12 36.567-25.16 36.567 0v70z"/></symbol><symbol viewBox="0 0 640 512" id="tags-solid"><path d="M497.941 225.941L286.059 14.059A48 48 0 0 0 252.118 0H48C21.49 0 0 21.49 0 48v204.118a48 48 0 0 0 14.059 33.941l211.882 211.882c18.744 18.745 49.136 18.746 67.882 0l204.118-204.118c18.745-18.745 18.745-49.137 0-67.882zM112 160c-26.51 0-48-21.49-48-48s21.49-48 48-48 48 21.49 48 48-21.49 48-48 48zm513.941 133.823L421.823 497.941c-18.745 18.745-49.137 18.745-67.882 0l-.36-.36L527.64 323.522c16.999-16.999 26.36-39.6 26.36-63.64s-9.362-46.641-26.36-63.64L331.397 0h48.721a48 48 0 0 1 33.941 14.059l211.882 211.882c18.745 18.745 18.745 49.137 0 67.882z"/></symbol>
<view id="hand-peace-view" viewBox="0 0 24 24" />
<use xlink:href="#hand-peace" width="24" height="24" x="0" y="0" id="peace"></use>
</svg>
